<svg xmlns="http://www.w3.org/2000/svg" xmlns:xlink="http://www.w3.org/1999/xlink" version="1.1" x="0px" y="0px" viewBox="0 0 100 100" enable-background="new 0 0 100 100" xml:space="preserve"><g display="none"><g display="inline"><path d="M0.064,47.439c0.015-0.292,0.045-0.579,0.065-0.87C0.11,46.859,0.079,47.147,0.064,47.439z"/><path d="M49.221,99.98c-13.223-0.204-25.196-5.534-34.024-14.099C24.025,94.446,35.998,99.777,49.221,99.98z"/><path d="M1.351,61.531c-0.125-0.526-0.251-1.052-0.359-1.584C1.1,60.479,1.227,61.005,1.351,61.531z"/><path d="M14.118,84.803c-1.635-1.685-3.152-3.484-4.539-5.385C10.965,81.319,12.483,83.117,14.118,84.803z"/><path d="M93.067,24.606c0.38,0.642,0.747,1.292,1.099,1.952C93.814,25.898,93.447,25.249,93.067,24.606z"/><path d="M82.091,88.333c-0.593,0.497-1.198,0.979-1.814,1.449C80.893,89.312,81.499,88.83,82.091,88.333z"/><path d="M91.791,22.561c0.421,0.638,0.827,1.286,1.218,1.944C92.618,23.846,92.21,23.199,91.791,22.561z"/><path d="M80.239,89.812c-8.205,6.237-18.397,9.998-29.46,10.168C61.843,99.811,72.034,96.054,80.239,89.812z"/><path d="M97.774,64.79c-0.141,0.454-0.299,0.899-0.452,1.348C97.475,65.689,97.633,65.244,97.774,64.79z"/><path d="M9.575,79.413c-0.46-0.632-0.906-1.273-1.337-1.927C8.669,78.14,9.115,78.781,9.575,79.413z"/><path d="M88.99,18.715c0.49,0.61,0.967,1.231,1.428,1.864C89.957,19.946,89.48,19.325,88.99,18.715z"/><path d="M2.781,66.444c-0.207-0.594-0.41-1.188-0.595-1.791C2.371,65.256,2.574,65.851,2.781,66.444z"/><path d="M96.997,67.099c-0.171,0.471-0.36,0.934-0.546,1.398C96.636,68.032,96.826,67.569,96.997,67.099z"/><path d="M96.114,69.353c-0.204,0.483-0.425,0.958-0.643,1.435C95.689,70.311,95.91,69.836,96.114,69.353z"/><path d="M90.431,20.598c0.457,0.626,0.899,1.264,1.328,1.913C91.332,21.862,90.888,21.225,90.431,20.598z"/><path d="M2.008,64.025c-0.165-0.563-0.329-1.129-0.474-1.701C1.679,62.896,1.843,63.461,2.008,64.025z"/><path d="M0.817,58.969c-0.087-0.481-0.18-0.961-0.253-1.446C0.637,58.008,0.73,58.487,0.817,58.969z"/><path d="M92.852,75.768c-0.312,0.518-0.64,1.024-0.971,1.53C92.212,76.792,92.541,76.285,92.852,75.768z"/><path d="M91.572,77.781c-0.351,0.523-0.717,1.035-1.086,1.545C90.855,78.816,91.221,78.305,91.572,77.781z"/><path d="M95.125,71.552c-0.238,0.497-0.493,0.984-0.746,1.472C94.632,72.536,94.887,72.049,95.125,71.552z"/><path d="M96.337,31.214c0.248,0.613,0.49,1.229,0.716,1.853C96.829,32.442,96.585,31.827,96.337,31.214z"/><path d="M99.181,41.031c0.088,0.481,0.181,0.96,0.254,1.446C99.362,41.992,99.269,41.513,99.181,41.031z"/><path d="M97.221,33.565c0.206,0.589,0.407,1.181,0.591,1.78C97.628,34.746,97.427,34.155,97.221,33.565z"/><path d="M97.994,35.985c0.164,0.561,0.326,1.121,0.471,1.689C98.321,37.106,98.158,36.546,97.994,35.985z"/><path d="M90.202,79.726c-0.391,0.527-0.797,1.043-1.207,1.554C89.405,80.768,89.811,80.253,90.202,79.726z"/><path d="M88.743,81.6c-0.431,0.527-0.876,1.042-1.327,1.551C87.867,82.642,88.312,82.127,88.743,81.6z"/><path d="M94.254,26.733c0.337,0.639,0.662,1.284,0.972,1.938C94.917,28.017,94.591,27.372,94.254,26.733z"/><path d="M0.136,53.518c-0.022-0.324-0.056-0.645-0.072-0.971C0.08,52.873,0.114,53.193,0.136,53.518z"/><path d="M0.411,56.319c-0.053-0.421-0.115-0.84-0.158-1.264C0.296,55.479,0.358,55.898,0.411,56.319z"/><path d="M83.872,86.769c-0.554,0.511-1.12,1.007-1.696,1.492C82.751,87.775,83.318,87.279,83.872,86.769z"/><path d="M95.346,28.937c0.293,0.628,0.577,1.262,0.844,1.905C95.923,30.199,95.639,29.565,95.346,28.937z"/><path d="M94.038,73.69c-0.275,0.511-0.567,1.012-0.86,1.511C93.47,74.702,93.762,74.201,94.038,73.69z"/><path d="M99.863,46.482c0.022,0.324,0.056,0.646,0.072,0.971C99.918,47.127,99.885,46.806,99.863,46.482z"/><path d="M99.588,43.681c0.053,0.421,0.114,0.84,0.157,1.264C99.703,44.521,99.641,44.102,99.588,43.681z"/><path d="M3.002,32.9c0.168-0.463,0.355-0.917,0.537-1.374C3.357,31.983,3.171,32.438,3.002,32.9z"/><path d="M2.226,35.209c0.138-0.447,0.294-0.886,0.445-1.328C2.52,34.323,2.364,34.762,2.226,35.209z"/><path d="M6.938,75.403c-0.382-0.646-0.751-1.3-1.105-1.964C6.186,74.104,6.555,74.758,6.938,75.403z"/><path d="M83.996,86.651c0.275-0.256,0.546-0.517,0.816-0.778l-0.006-0.006C84.537,86.129,84.271,86.396,83.996,86.651z"/><path d="M98.65,38.478c0.124,0.523,0.25,1.046,0.356,1.575C98.9,39.523,98.774,39.001,98.65,38.478z"/><path d="M3.886,30.646c0.201-0.478,0.419-0.946,0.634-1.416C4.305,29.7,4.087,30.168,3.886,30.646z"/><path d="M4.874,28.447c0.236-0.494,0.49-0.978,0.742-1.462C5.364,27.469,5.11,27.953,4.874,28.447z"/><path d="M99.428,57.578c-0.061,0.395-0.139,0.782-0.208,1.174C99.29,58.36,99.368,57.973,99.428,57.578z"/><path d="M0.256,44.911c0.036-0.352,0.089-0.698,0.132-1.048C0.345,44.213,0.292,44.559,0.256,44.911z"/><path d="M99.743,55.089c-0.035,0.356-0.09,0.707-0.133,1.062C99.653,55.796,99.707,55.445,99.743,55.089z"/><path d="M98.993,60.026c-0.084,0.414-0.188,0.821-0.281,1.23C98.805,60.848,98.909,60.44,98.993,60.026z"/><path d="M0.571,42.422c0.06-0.39,0.137-0.773,0.206-1.16C0.708,41.648,0.63,42.032,0.571,42.422z"/><path d="M99.935,52.561c-0.016,0.295-0.047,0.586-0.066,0.879C99.888,53.146,99.919,52.855,99.935,52.561z"/><path d="M1.559,37.567c0.11-0.432,0.239-0.856,0.361-1.283C1.798,36.711,1.669,37.136,1.559,37.567z"/><path d="M1.006,39.973c0.084-0.413,0.187-0.818,0.281-1.227C1.193,39.154,1.09,39.56,1.006,39.973z"/><path d="M85.873,84.812c0.449-0.464,0.895-0.932,1.327-1.412C86.767,83.881,86.322,84.348,85.873,84.812L85.873,84.812z"/><path d="M4.658,71.074c-0.295-0.633-0.581-1.271-0.849-1.917C4.077,69.804,4.363,70.441,4.658,71.074z"/><path d="M98.44,62.433c-0.111,0.436-0.241,0.862-0.364,1.293C98.199,63.295,98.329,62.868,98.44,62.433z"/><path d="M3.665,68.793c-0.25-0.615-0.493-1.234-0.719-1.861C3.171,67.56,3.415,68.178,3.665,68.793z"/><path d="M5.75,73.278c-0.339-0.643-0.667-1.293-0.979-1.952C5.083,71.985,5.411,72.636,5.75,73.278z"/><path d="M16.002,13.35c-0.275,0.256-0.546,0.516-0.815,0.777l0.006,0.006C15.462,13.871,15.727,13.605,16.002,13.35z"/><path d="M49.25,0.019c-11.076,0.164-21.279,3.922-29.491,10.17C27.971,3.945,38.174,0.183,49.25,0.019L49.25,0.019z"/><path d="M5.962,26.309c0.272-0.504,0.56-0.998,0.848-1.491C6.522,25.311,6.233,25.805,5.962,26.309z"/><path d="M8.215,77.451c-0.423-0.643-0.833-1.295-1.227-1.958C7.383,76.156,7.792,76.809,8.215,77.451z"/><path d="M14.126,15.188c-0.45,0.464-0.895,0.932-1.327,1.412C13.231,16.119,13.677,15.652,14.126,15.188L14.126,15.188z"/><path d="M85.892,15.208c0.538,0.556,1.064,1.123,1.577,1.703C86.957,16.331,86.43,15.764,85.892,15.208z"/><path d="M9.798,20.273c0.39-0.525,0.793-1.039,1.203-1.549C10.592,19.234,10.188,19.748,9.798,20.273z"/><path d="M87.477,16.92c0.517,0.585,1.021,1.183,1.511,1.792C88.498,18.103,87.994,17.506,87.477,16.92z"/><path d="M11.256,18.4c0.431-0.527,0.875-1.042,1.327-1.551C12.132,17.358,11.687,17.873,11.256,18.4z"/><path d="M7.148,24.23c0.31-0.513,0.634-1.015,0.961-1.516C7.782,23.215,7.458,23.717,7.148,24.23z"/><path d="M8.428,22.218c0.348-0.521,0.712-1.03,1.08-1.536C9.14,21.189,8.776,21.698,8.428,22.218z"/><path d="M16.127,13.23c0.557-0.513,1.127-1.013,1.707-1.5C17.254,12.218,16.684,12.717,16.127,13.23z"/><path d="M17.906,11.668c0.597-0.5,1.206-0.986,1.826-1.458C19.112,10.682,18.502,11.168,17.906,11.668z"/><path fill="#000000" d="M14.253,15.055c-0.042,0.043-0.084,0.089-0.126,0.132l0.001,0.001    C14.17,15.145,14.21,15.099,14.253,15.055z"/><path fill="#000000" d="M85.747,84.944c0.042-0.044,0.083-0.089,0.126-0.132l-0.001-0.001C85.83,84.855,85.789,84.9,85.747,84.944    z"/><path d="M50.75,96.981v2c12.963-0.195,24.695-5.431,33.351-13.82l-1.415-1.415C74.392,91.775,63.159,96.786,50.75,96.981z"/><path d="M83.75,82.689l1.416,1.416c8.396-8.652,13.62-20.391,13.815-33.355h-2C96.786,63.162,91.786,74.4,83.75,82.689z"/><path d="M83.751,17.309c8.033,8.292,13.034,19.531,13.229,31.941h2c-0.195-12.964-5.42-24.702-13.814-33.356L83.751,17.309z"/><path d="M16.249,17.31l-1.416-1.416C6.437,24.546,1.214,36.285,1.018,49.25h2C3.213,36.838,8.213,25.6,16.249,17.31z"/><path d="M3.018,50.75h-2c0.196,12.963,5.42,24.701,13.815,33.355l1.415-1.414C8.214,74.398,3.213,63.161,3.018,50.75z"/><path d="M49.25,3.019v-2c-12.963,0.195-24.696,5.43-33.351,13.82l1.415,1.415C25.606,8.225,36.84,3.214,49.25,3.019z"/><path d="M17.309,83.752l-1.415,1.414c8.654,8.396,20.392,13.62,33.356,13.815v-2C36.839,96.786,25.601,91.785,17.309,83.752z"/><path d="M4.018,50.75c0.195,12.135,5.084,23.123,12.937,31.233L48.189,50.75H4.018z M13,58c-1.105,0-2-0.895-2-2s0.895-2,2-2    s2,0.895,2,2S14.104,58,13,58z M20,65c-1.105,0-2-0.895-2-2s0.895-2,2-2s2,0.895,2,2S21.104,65,20,65z M29,58    c-1.105,0-2-0.895-2-2s0.895-2,2-2s2,0.895,2,2S30.104,58,29,58z"/><path d="M16.957,18.018C9.102,26.126,4.213,37.114,4.018,49.25h44.171L16.957,18.018z M13,41c-1.105,0-2-0.895-2-2s0.895-2,2-2    s2,0.895,2,2S14.104,41,13,41z"/><path d="M49.25,48.189V4.019C37.117,4.214,26.133,9.113,18.021,16.961L49.25,48.189z M41,24c1.105,0,2,0.895,2,2s-0.895,2-2,2    s-2-0.895-2-2S39.895,24,41,24z M32,13c1.105,0,2,0.895,2,2s-0.895,2-2,2s-2-0.895-2-2S30.895,13,32,13z"/><path d="M83.042,81.982c7.855-8.108,12.743-19.097,12.938-31.232H51.81L83.042,81.982z M84,64c1.105,0,2,0.895,2,2s-0.895,2-2,2    s-2-0.895-2-2S82.894,64,84,64z M79,55c1.105,0,2,0.895,2,2s-0.895,2-2,2s-2-0.895-2-2S77.894,55,79,55z M69,60    c1.105,0,2,0.895,2,2s-0.895,2-2,2s-2-0.895-2-2S67.894,60,69,60z"/><path d="M50.75,95.981c12.133-0.194,23.117-5.094,31.229-12.942L50.75,51.811V95.981z M63,81c1.105,0,2,0.895,2,2s-0.895,2-2,2    s-2-0.895-2-2S61.894,81,63,81z M56,68c1.105,0,2,0.895,2,2s-0.895,2-2,2s-2-0.895-2-2S54.894,68,56,68z"/><path d="M83.043,18.016L51.81,49.25h44.171C95.786,37.116,90.896,26.127,83.043,18.016z M76,42c-1.105,0-2-0.895-2-2s0.895-2,2-2    s2,0.895,2,2S77.105,42,76,42z M84,33c-1.105,0-2-0.895-2-2s0.895-2,2-2s2,0.895,2,2S85.105,33,84,33z"/><path d="M18.016,83.044c8.111,7.853,19.1,12.742,31.234,12.938V51.811L18.016,83.044z M30,82c-1.105,0-2-0.895-2-2s0.895-2,2-2    s2,0.895,2,2S31.104,82,30,82z M42,91c-1.105,0-2-0.895-2-2s0.895-2,2-2s2,0.895,2,2S43.104,91,42,91z"/><path fill="#000000" d="M88.988,18.712c0.001,0.001,0.002,0.002,0.002,0.002C88.99,18.714,88.989,18.713,88.988,18.712z"/><path fill="#000000" d="M91.759,22.511c0.011,0.017,0.021,0.033,0.031,0.05C91.78,22.544,91.77,22.527,91.759,22.511z"/><path fill="#000000" d="M87.469,16.911c0.002,0.003,0.005,0.006,0.008,0.009C87.474,16.917,87.471,16.914,87.469,16.911z"/><path fill="#000000" d="M90.417,20.579c0.005,0.006,0.009,0.013,0.014,0.02C90.426,20.592,90.422,20.585,90.417,20.579z"/><path fill="#000000" d="M99.746,44.944c0.051,0.509,0.081,1.024,0.117,1.538C99.827,45.969,99.796,45.454,99.746,44.944z"/><path fill="#000000" d="M99.435,42.478c0.061,0.398,0.103,0.802,0.153,1.203C99.538,43.28,99.496,42.876,99.435,42.478z"/><path fill="#000000" d="M97.053,33.067c0.059,0.165,0.11,0.333,0.168,0.499C97.164,33.4,97.112,33.231,97.053,33.067z"/><path fill="#000000" d="M97.812,35.346c0.065,0.211,0.12,0.427,0.182,0.64C97.932,35.773,97.877,35.557,97.812,35.346z"/><path fill="#000000" d="M96.19,30.842c0.052,0.123,0.097,0.249,0.147,0.373C96.287,31.091,96.242,30.965,96.19,30.842z"/><path fill="#000000" d="M99.006,40.053c0.065,0.324,0.116,0.653,0.175,0.979C99.123,40.706,99.072,40.376,99.006,40.053z"/><path fill="#000000" d="M95.226,28.671c0.042,0.088,0.079,0.177,0.12,0.266C95.305,28.849,95.268,28.759,95.226,28.671z"/><path fill="#000000" d="M99.981,49.25c-0.009-0.601-0.016-1.202-0.046-1.797C99.965,48.048,99.972,48.649,99.981,49.25    L99.981,49.25z"/><path fill="#000000" d="M98.464,37.674c0.067,0.266,0.122,0.536,0.186,0.803C98.586,38.21,98.532,37.94,98.464,37.674z"/><path fill="#000000" d="M94.166,26.559c0.03,0.058,0.059,0.116,0.089,0.174C94.224,26.675,94.196,26.616,94.166,26.559z"/><path fill="#000000" d="M93.008,24.504c0.021,0.034,0.039,0.068,0.059,0.102C93.047,24.573,93.029,24.538,93.008,24.504z"/><path fill="#000000" d="M50.75,99.981c0.01,0,0.02-0.001,0.029-0.001C50.769,99.98,50.759,99.98,50.75,99.981L50.75,99.981z"/><path fill="#000000" d="M88.995,81.279c-0.085,0.105-0.166,0.215-0.252,0.32C88.829,81.494,88.91,81.385,88.995,81.279z"/><path fill="#000000" d="M99.935,52.561c0.03-0.6,0.037-1.205,0.046-1.811l0,0C99.971,51.355,99.965,51.961,99.935,52.561z"/><path fill="#000000" d="M97.322,66.138c-0.108,0.32-0.209,0.644-0.325,0.961C97.113,66.781,97.213,66.458,97.322,66.138z"/><path fill="#000000" d="M90.486,79.326c-0.097,0.132-0.188,0.268-0.284,0.399C90.298,79.594,90.389,79.458,90.486,79.326z"/><path fill="#000000" d="M99.61,56.15c-0.059,0.477-0.11,0.955-0.182,1.428C99.5,57.105,99.551,56.627,99.61,56.15z"/><path fill="#000000" d="M83.996,86.651c-0.042,0.038-0.082,0.079-0.124,0.117C83.914,86.73,83.954,86.689,83.996,86.651z"/><path fill="#000000" d="M87.416,83.15c-0.073,0.083-0.143,0.168-0.216,0.25C87.273,83.318,87.342,83.233,87.416,83.15z"/><path fill="#000000" d="M82.175,88.261c-0.028,0.024-0.056,0.049-0.084,0.072C82.12,88.31,82.147,88.284,82.175,88.261z"/><path fill="#000000" d="M85.892,15.208c-0.007-0.006-0.013-0.014-0.02-0.021v0C85.878,15.194,85.885,15.202,85.892,15.208z"/><path fill="#000000" d="M94.379,73.023c-0.115,0.222-0.224,0.447-0.342,0.667C94.156,73.471,94.264,73.245,94.379,73.023z"/><path fill="#000000" d="M91.881,77.298c-0.104,0.16-0.203,0.324-0.31,0.483C91.678,77.622,91.777,77.458,91.881,77.298z"/><path fill="#000000" d="M95.471,70.787c-0.116,0.254-0.226,0.513-0.346,0.765C95.246,71.3,95.355,71.041,95.471,70.787z"/><path fill="#000000" d="M96.451,68.497c-0.113,0.284-0.219,0.573-0.337,0.855C96.232,69.07,96.337,68.781,96.451,68.497z"/><path fill="#000000" d="M93.177,75.201c-0.109,0.188-0.213,0.38-0.325,0.566C92.964,75.581,93.068,75.39,93.177,75.201z"/><path fill="#000000" d="M98.076,63.726c-0.101,0.354-0.193,0.713-0.302,1.064C97.882,64.438,97.975,64.08,98.076,63.726z"/><path fill="#000000" d="M99.22,58.752c-0.075,0.425-0.142,0.854-0.228,1.274C99.079,59.605,99.145,59.177,99.22,58.752z"/><path fill="#000000" d="M80.277,89.782c-0.013,0.01-0.025,0.021-0.038,0.03C80.251,89.803,80.264,89.792,80.277,89.782z"/><path fill="#000000" d="M99.869,53.439c-0.037,0.551-0.07,1.104-0.126,1.649C99.798,54.543,99.831,53.99,99.869,53.439z"/><path fill="#000000" d="M98.711,61.257c-0.091,0.393-0.172,0.787-0.271,1.176C98.54,62.044,98.621,61.649,98.711,61.257z"/><path d="M84.1,85.161c-8.655,8.39-20.388,13.625-33.351,13.82v1c0.01-0.001,0.02-0.001,0.029-0.001    c11.062-0.17,21.255-3.931,29.46-10.168c0.013-0.01,0.025-0.021,0.038-0.03c0.616-0.47,1.222-0.952,1.814-1.449    c0.028-0.023,0.056-0.048,0.084-0.072c0.576-0.485,1.143-0.981,1.696-1.492c0.042-0.038,0.082-0.079,0.124-0.117    c0.275-0.256,0.541-0.522,0.811-0.784L84.1,85.161z"/><path d="M85.167,15.894c8.395,8.654,13.619,20.392,13.814,33.356h1c-0.009-0.601-0.016-1.202-0.046-1.797    c-0.017-0.326-0.05-0.647-0.072-0.971c-0.036-0.513-0.066-1.028-0.117-1.538c-0.043-0.424-0.104-0.842-0.157-1.264    c-0.051-0.401-0.093-0.805-0.153-1.203c-0.073-0.486-0.166-0.965-0.254-1.446c-0.059-0.326-0.109-0.655-0.175-0.979    c-0.106-0.529-0.232-1.052-0.356-1.575c-0.063-0.268-0.118-0.538-0.186-0.803c-0.145-0.568-0.307-1.128-0.471-1.689    c-0.062-0.212-0.116-0.428-0.182-0.64c-0.184-0.6-0.385-1.191-0.591-1.78c-0.058-0.166-0.109-0.334-0.168-0.499    c-0.226-0.624-0.468-1.24-0.716-1.853c-0.051-0.124-0.096-0.25-0.147-0.373c-0.267-0.643-0.551-1.276-0.844-1.905    c-0.041-0.088-0.078-0.178-0.12-0.266c-0.31-0.654-0.635-1.3-0.972-1.938c-0.03-0.058-0.059-0.117-0.089-0.174    c-0.352-0.66-0.719-1.311-1.099-1.952c-0.02-0.034-0.038-0.068-0.059-0.102c-0.391-0.658-0.797-1.306-1.218-1.944    c-0.011-0.017-0.021-0.033-0.031-0.05c-0.429-0.648-0.871-1.286-1.328-1.913c-0.005-0.006-0.009-0.013-0.014-0.02    c-0.461-0.632-0.938-1.254-1.428-1.864c0,0-0.001-0.001-0.002-0.002c-0.49-0.609-0.994-1.207-1.511-1.792    c-0.003-0.003-0.006-0.006-0.008-0.009c-0.513-0.58-1.039-1.147-1.577-1.703c-0.007-0.006-0.014-0.014-0.02-0.02L85.167,15.894z"/><path d="M98.981,50.75c-0.195,12.965-5.419,24.703-13.815,33.355l0.706,0.706c0.45-0.464,0.896-0.931,1.328-1.411    c0.073-0.082,0.143-0.167,0.216-0.25c0.451-0.509,0.896-1.023,1.327-1.551c0.086-0.105,0.167-0.215,0.252-0.32    c0.41-0.511,0.816-1.026,1.207-1.554c0.097-0.132,0.188-0.268,0.284-0.399c0.369-0.51,0.735-1.021,1.086-1.545    c0.106-0.159,0.205-0.323,0.31-0.483c0.331-0.506,0.659-1.013,0.971-1.53c0.112-0.187,0.216-0.378,0.325-0.566    c0.293-0.499,0.585-1,0.86-1.511c0.118-0.22,0.227-0.445,0.342-0.667c0.253-0.487,0.508-0.975,0.746-1.472    c0.12-0.252,0.229-0.511,0.346-0.765c0.218-0.477,0.438-0.951,0.643-1.435c0.118-0.282,0.224-0.571,0.337-0.855    c0.186-0.465,0.375-0.928,0.546-1.398c0.116-0.317,0.217-0.641,0.325-0.961c0.153-0.448,0.312-0.894,0.452-1.348    c0.108-0.352,0.201-0.71,0.302-1.064c0.123-0.431,0.253-0.857,0.364-1.293c0.1-0.389,0.181-0.783,0.271-1.176    c0.094-0.409,0.197-0.816,0.281-1.23c0.086-0.421,0.152-0.85,0.228-1.274c0.069-0.392,0.147-0.779,0.208-1.174    c0.071-0.473,0.123-0.951,0.182-1.428c0.043-0.354,0.098-0.705,0.133-1.062c0.056-0.546,0.089-1.099,0.126-1.649    c0.02-0.293,0.051-0.584,0.066-0.879c0.03-0.6,0.036-1.205,0.046-1.811H98.981z"/><path fill="#000000" d="M85.747,84.944c-0.058,0.06-0.113,0.121-0.172,0.18C85.633,85.065,85.689,85.004,85.747,84.944z"/><polygon fill="#000000" points="15.187,85.873 15.197,85.882 15.187,85.873   "/><path fill="#000000" d="M49.25,99.981L49.25,99.981c-0.01-0.001-0.019-0.001-0.029-0.001C49.23,99.98,49.24,99.981,49.25,99.981z"/><path d="M15.894,85.166l-0.707,0.707c0.003,0.003,0.006,0.006,0.01,0.009c8.828,8.564,20.801,13.895,34.024,14.099    c0.01,0,0.019,0,0.029,0.001v-1C36.286,98.786,24.548,93.562,15.894,85.166z"/><path fill="#000000" d="M0.018,50.75c0.009,0.601,0.016,1.201,0.046,1.797C0.034,51.951,0.027,51.351,0.018,50.75L0.018,50.75z"/><path fill="#000000" d="M8.109,22.714c0.107-0.165,0.209-0.333,0.318-0.496C8.318,22.381,8.217,22.55,8.109,22.714z"/><polygon fill="#000000" points="14.118,84.803 14.126,84.812 14.126,84.812   "/><path fill="#000000" d="M5.616,26.985c0.117-0.225,0.226-0.454,0.346-0.676C5.842,26.531,5.732,26.76,5.616,26.985z"/><path fill="#000000" d="M6.81,24.817c0.114-0.195,0.222-0.394,0.338-0.587C7.032,24.423,6.924,24.623,6.81,24.817z"/><path fill="#000000" d="M12.583,16.849c0.073-0.083,0.143-0.167,0.216-0.25C12.726,16.682,12.656,16.767,12.583,16.849z"/><path fill="#000000" d="M9.507,20.683c0.098-0.136,0.191-0.275,0.291-0.409C9.699,20.408,9.605,20.547,9.507,20.683z"/><path fill="#000000" d="M19.732,10.21c0.009-0.007,0.018-0.014,0.026-0.021C19.75,10.196,19.741,10.203,19.732,10.21z"/><path fill="#000000" d="M0.064,47.439c-0.03,0.6-0.037,1.206-0.046,1.811h0C0.027,48.645,0.034,48.039,0.064,47.439z"/><path fill="#000000" d="M17.834,11.73c0.024-0.02,0.047-0.042,0.071-0.062C17.881,11.688,17.858,11.709,17.834,11.73z"/><path fill="#000000" d="M2.67,33.881c0.111-0.327,0.214-0.657,0.332-0.981C2.885,33.224,2.782,33.555,2.67,33.881z"/><path fill="#000000" d="M16.002,13.35c0.042-0.039,0.083-0.08,0.125-0.119C16.085,13.27,16.044,13.311,16.002,13.35z"/><path fill="#000000" d="M3.539,31.526c0.117-0.293,0.225-0.59,0.347-0.881C3.764,30.936,3.656,31.233,3.539,31.526z"/><path fill="#000000" d="M11.001,18.725c0.086-0.107,0.168-0.218,0.255-0.325C11.169,18.507,11.087,18.617,11.001,18.725z"/><path fill="#000000" d="M4.52,29.229c0.119-0.26,0.23-0.525,0.354-0.783C4.75,28.705,4.639,28.969,4.52,29.229z"/><path fill="#000000" d="M0.992,59.947c-0.065-0.324-0.116-0.652-0.175-0.979C0.876,59.294,0.927,59.623,0.992,59.947z"/><path fill="#000000" d="M4.771,71.326c-0.04-0.083-0.075-0.168-0.114-0.252C4.697,71.158,4.732,71.243,4.771,71.326z"/><path fill="#000000" d="M0.564,57.522c-0.06-0.398-0.102-0.802-0.153-1.203C0.462,56.721,0.504,57.124,0.564,57.522z"/><path fill="#000000" d="M1.534,62.324c-0.066-0.262-0.121-0.529-0.183-0.793C1.414,61.795,1.467,62.062,1.534,62.324z"/><path fill="#000000" d="M0.388,43.863c0.059-0.481,0.111-0.964,0.183-1.441C0.499,42.899,0.447,43.382,0.388,43.863z"/><path fill="#000000" d="M9.579,79.418c-0.001-0.002-0.002-0.004-0.003-0.005C9.577,79.414,9.578,79.416,9.579,79.418z"/><path fill="#000000" d="M8.238,77.486c-0.007-0.012-0.015-0.023-0.022-0.035C8.223,77.463,8.23,77.475,8.238,77.486z"/><path fill="#000000" d="M2.186,64.653c-0.063-0.208-0.117-0.419-0.178-0.628C2.069,64.234,2.123,64.446,2.186,64.653z"/><path fill="#000000" d="M2.946,66.932c-0.058-0.161-0.109-0.326-0.165-0.487C2.837,66.605,2.888,66.771,2.946,66.932z"/><path fill="#000000" d="M0.13,46.569c0.038-0.554,0.071-1.109,0.126-1.658C0.201,45.46,0.167,46.015,0.13,46.569z"/><path fill="#000000" d="M0.253,55.056c-0.051-0.509-0.081-1.024-0.117-1.538C0.172,54.031,0.202,54.547,0.253,55.056z"/><path fill="#000000" d="M5.833,73.439c-0.028-0.054-0.054-0.107-0.082-0.161C5.778,73.332,5.804,73.386,5.833,73.439z"/><path fill="#000000" d="M3.809,69.157c-0.05-0.12-0.095-0.243-0.144-0.364C3.714,68.914,3.758,69.037,3.809,69.157z"/><path fill="#000000" d="M1.92,36.284c0.102-0.358,0.196-0.72,0.306-1.075C2.116,35.564,2.022,35.926,1.92,36.284z"/><path fill="#000000" d="M1.287,38.746c0.09-0.393,0.172-0.789,0.272-1.178C1.459,37.957,1.377,38.353,1.287,38.746z"/><path fill="#000000" d="M6.989,75.493c-0.018-0.029-0.034-0.06-0.051-0.09C6.955,75.434,6.971,75.464,6.989,75.493z"/><path fill="#000000" d="M0.776,41.262c0.076-0.43,0.144-0.863,0.23-1.289C0.92,40.398,0.852,40.832,0.776,41.262z"/><path d="M14.833,84.105C6.438,75.451,1.214,63.713,1.018,50.75h-1c0.009,0.601,0.016,1.201,0.045,1.797    c0.016,0.326,0.05,0.646,0.072,0.971c0.036,0.514,0.066,1.029,0.117,1.538c0.042,0.424,0.104,0.843,0.158,1.264    c0.051,0.401,0.093,0.805,0.153,1.203c0.073,0.485,0.166,0.965,0.253,1.446c0.059,0.326,0.109,0.654,0.175,0.979    c0.108,0.532,0.234,1.058,0.359,1.584c0.062,0.264,0.117,0.531,0.183,0.793c0.145,0.572,0.309,1.138,0.474,1.701    c0.061,0.209,0.114,0.42,0.178,0.628c0.185,0.603,0.388,1.197,0.595,1.791c0.056,0.161,0.107,0.326,0.165,0.487    c0.226,0.627,0.469,1.246,0.719,1.861c0.049,0.121,0.093,0.244,0.144,0.364c0.269,0.646,0.554,1.284,0.849,1.917    c0.039,0.084,0.074,0.169,0.114,0.252c0.312,0.659,0.64,1.31,0.979,1.952c0.028,0.054,0.054,0.107,0.082,0.161    c0.354,0.664,0.723,1.318,1.105,1.964c0.018,0.03,0.034,0.061,0.051,0.09c0.394,0.663,0.803,1.315,1.227,1.958    c0.008,0.012,0.015,0.023,0.022,0.035c0.431,0.653,0.877,1.295,1.337,1.927c0.001,0.001,0.002,0.003,0.003,0.005    c1.387,1.9,2.904,3.7,4.539,5.385c0.003,0.003,0.006,0.007,0.009,0.01L14.833,84.105z"/><path d="M1.018,49.25c0.196-12.965,5.418-24.704,13.815-33.355l-0.706-0.706c-0.45,0.463-0.896,0.931-1.328,1.411    c-0.073,0.082-0.143,0.167-0.216,0.25c-0.452,0.509-0.896,1.024-1.327,1.551c-0.087,0.107-0.169,0.217-0.255,0.325    c-0.41,0.51-0.813,1.023-1.203,1.549c-0.1,0.134-0.193,0.273-0.291,0.409c-0.367,0.506-0.731,1.015-1.08,1.536    c-0.109,0.163-0.211,0.332-0.318,0.496c-0.327,0.501-0.652,1.003-0.961,1.516c-0.116,0.193-0.224,0.393-0.338,0.587    c-0.288,0.494-0.576,0.987-0.848,1.491c-0.12,0.223-0.229,0.451-0.346,0.676c-0.252,0.484-0.505,0.968-0.742,1.462    c-0.124,0.258-0.235,0.522-0.354,0.783c-0.215,0.47-0.433,0.938-0.634,1.416c-0.122,0.291-0.23,0.588-0.347,0.881    c-0.182,0.457-0.368,0.911-0.537,1.374c-0.118,0.324-0.221,0.654-0.332,0.981c-0.15,0.442-0.307,0.88-0.445,1.328    c-0.11,0.355-0.204,0.717-0.306,1.075c-0.122,0.427-0.25,0.852-0.361,1.283c-0.1,0.389-0.182,0.785-0.272,1.178    c-0.094,0.409-0.197,0.814-0.281,1.227c-0.086,0.426-0.154,0.859-0.23,1.289c-0.068,0.387-0.146,0.77-0.206,1.16    c-0.072,0.477-0.124,0.96-0.183,1.441c-0.042,0.35-0.096,0.696-0.132,1.048c-0.055,0.549-0.088,1.104-0.126,1.658    c-0.02,0.291-0.051,0.578-0.065,0.87c-0.03,0.6-0.037,1.206-0.046,1.811H1.018z"/><path d="M15.899,14.839c8.655-8.39,20.388-13.625,33.351-13.82v-1c-11.075,0.164-21.279,3.926-29.491,10.17    c-0.009,0.007-0.018,0.014-0.026,0.021c-0.62,0.472-1.229,0.958-1.826,1.458c-0.024,0.021-0.047,0.042-0.071,0.062    c-0.58,0.488-1.15,0.988-1.707,1.5c-0.042,0.039-0.083,0.08-0.125,0.119c-0.275,0.255-0.54,0.521-0.81,0.783L15.899,14.839z"/><polygon points="50,0 49.999,0 50,0   "/><path d="M49.25,0v0.019C49.5,0.015,49.748,0,49.999,0H49.25z"/><path d="M50,0C49.999,0,49.999,0,50,0c-0.252,0-0.5,0.015-0.75,0.019l0,0C49.5,0.015,49.748,0,50,0z"/><path d="M50.75,0.019V0H50c0.04,0,0.08,0.002,0.12,0.003C50.331,0.003,50.539,0.016,50.75,0.019z"/><path d="M50.75,0.019L50.75,0.019c-0.21-0.003-0.419-0.016-0.63-0.016C50.33,0.007,50.539,0.016,50.75,0.019z"/><path fill="#000000" d="M50.12,0.003C50.08,0.002,50.04,0,50,0l0,0C50.04,0,50.079,0.003,50.12,0.003z"/><polygon fill="#000000" points="15.182,85.867 15.187,85.873 15.187,85.873   "/><polygon fill="#000000" points="85.873,15.188 85.873,15.188 85.861,15.175   "/><polygon fill="#000000" points="84.812,14.127 84.812,14.127 84.824,14.139   "/></g></g><g><g><path d="M50,0C22.386,0,0,22.386,0,50s22.386,50,50,50c27.614,0,50-22.387,50-50S77.614,0,50,0z M50,95C25.149,95,5,74.85,5,50    C5,25.149,25.149,5,50,5s45,20.149,45,45C95,74.85,74.85,95,50,95z"/></g><g><path fill="none" d="M28.26,53.205c0-2.16,1.752-3.912,3.911-3.912c2.161,0,3.913,1.751,3.913,3.912l-3.913,6.037L28.26,53.205z"/><polygon fill="none" points="40.448,6.026 40.44,6.027 40.44,6.027   "/><path fill="none" d="M55.81,5.386c0.069,0.009,0.14,0.017,0.21,0.026C55.95,5.403,55.879,5.395,55.81,5.386z"/><path fill="none" d="M53.416,5.142c0.232,0.018,0.466,0.032,0.697,0.053C53.881,5.174,53.648,5.16,53.416,5.142z"/><path fill="none" d="M50,5c0.709,0,1.413,0.021,2.114,0.054C51.414,5.02,50.708,5,50,5z"/><path fill="none" d="M47.263,5.09c0.109-0.006,0.216-0.019,0.325-0.024C47.479,5.072,47.372,5.084,47.263,5.09z"/><path fill="none" d="M45.02,5.28c0.05-0.005,0.099-0.013,0.148-0.019C45.119,5.267,45.07,5.275,45.02,5.28z"/><rect x="34.573" y="30.821" transform="matrix(-0.7071 -0.7071 0.7071 -0.7071 69.5915 111.8891)" fill="none" width="46.79" height="21.423"/><circle fill="none" cx="32.173" cy="52.868" r="1.812"/><polygon points="60.231,6.183 60.226,6.182 60.231,6.183   "/><polygon points="81.03,82.571 81.032,82.57 81.03,82.571   "/><polygon points="17.918,81.544 17.919,81.545 17.918,81.544   "/><polygon points="93.417,61.831 93.417,61.827 93.417,61.831   "/><polygon points="94.146,41.269 94.144,41.259 94.146,41.27   "/><polygon points="93.629,38.957 93.629,38.957 93.63,38.959   "/><path d="M93.972,59.56L93.972,59.56c-0.002,0.009-0.004,0.017-0.006,0.025C93.968,59.576,93.97,59.568,93.972,59.56z"/><polygon points="17.429,18.969 17.429,18.969 17.431,18.967   "/><polygon points="58.73,94.146 58.74,94.145 58.73,94.146   "/><path d="M40.44,6.027c-0.008,0.002-0.016,0.004-0.023,0.006C40.424,6.031,40.432,6.029,40.44,6.027L40.44,6.027z"/><path d="M32.171,49.293c-2.159,0-3.911,1.751-3.911,3.912l3.911,6.037l3.913-6.037C36.084,51.045,34.332,49.293,32.171,49.293z     M32.173,54.68c-1.001,0-1.812-0.812-1.812-1.812s0.812-1.811,1.812-1.811c0.999,0,1.811,0.811,1.811,1.811    S33.172,54.68,32.173,54.68z"/><path d="M54.113,5.195c0.568,0.053,1.135,0.117,1.697,0.191C55.247,5.313,54.682,5.247,54.113,5.195z"/><path d="M52.114,5.054c0.437,0.021,0.869,0.055,1.302,0.088C52.983,5.11,52.55,5.074,52.114,5.054z"/><path d="M45.168,5.262c0.693-0.075,1.393-0.128,2.095-0.171C46.561,5.133,45.862,5.188,45.168,5.262z"/><path d="M40.448,6.026c1.498-0.324,3.024-0.573,4.572-0.746C43.471,5.451,41.946,5.702,40.448,6.026z"/><path d="M47.588,5.066C48.387,5.023,49.19,5,50,5C49.19,5,48.387,5.023,47.588,5.066z"/><path d="M93.417,61.827c0.201-0.74,0.385-1.487,0.549-2.242C93.801,60.34,93.619,61.087,93.417,61.827z"/><path d="M60.226,6.182c-1.379-0.321-2.782-0.578-4.206-0.769c0.624,0.085,1.245,0.181,1.862,0.29    C58.67,5.842,59.453,6.002,60.226,6.182z"/><path d="M93.63,38.959c0.191,0.759,0.361,1.526,0.514,2.3C93.992,40.485,93.822,39.718,93.63,38.959z"/></g><g><rect x="48.808" y="19.532" transform="matrix(0.7071 -0.7071 0.7071 0.7071 -12.2903 53.1821)" fill="none" width="18.486" height="43.79"/><path d="M33.639,70.874l19.027,19.027c2.108-0.139,4.171-0.441,6.177-0.896L37.175,67.338L33.639,70.874z"/><path d="M32.498,28.945l-8.943-8.943c-1.251,1.104-2.432,2.284-3.537,3.535l8.944,8.944L32.498,28.945z"/><path d="M68.533,68.98l-3.535-3.536l2-2L36.033,32.481l-3.536,3.536L46.961,50.48l1.784-1.784l3.535,3.536l-1.784,1.783    L76.461,79.98c1.251-1.104,2.432-2.285,3.535-3.537l-9.464-9.463L68.533,68.98z"/><path d="M49.105,12.338l-2.207-2.207c-2.09,0.161-4.134,0.48-6.122,0.95l4.793,4.792L49.105,12.338z"/><rect x="63.855" y="11.229" transform="matrix(-0.7071 0.7072 -0.7072 -0.7071 136.6943 9.6204)" width="5" height="43.79"/><path d="M87.14,50.373l-3.536,3.536l5.314,5.313c0.47-1.987,0.789-4.032,0.949-6.121L87.14,50.373z"/><path d="M31.998,69.232l3.536-3.536l1.642,1.642l13.322-13.322l-3.536-3.535L20.468,76.974c1.125,1.231,2.332,2.387,3.602,3.47    l9.569-9.569L31.998,69.232z"/><rect x="33.426" y="65.785" transform="matrix(-0.7071 -0.7071 0.7071 -0.7071 10.7578 141.0264)" width="2.322" height="5.001"/><rect x="47.121" y="50.095" transform="matrix(0.707 0.7072 -0.7072 0.707 50.858 -20.0453)" width="5" height="2.523"/><rect x="72.801" y="49.434" transform="matrix(-0.707 -0.7072 0.7072 -0.707 87.0427 153.4148)" width="5" height="18.486"/><path d="M87.14,50.373l2.781-2.781c-0.127-2.119-0.42-4.191-0.863-6.209l-5.454,5.454L87.14,50.373z"/><rect x="65.265" y="64.798" transform="matrix(-0.707 -0.7072 0.7072 -0.707 68.85 160.949)" width="5" height="2.828"/><rect x="81.104" y="47.873" transform="matrix(-0.707 -0.7072 0.7072 -0.707 107.0896 145.1127)" width="5" height="5.001"/><path d="M12.73,48.713c0.977-0.977,2.559-0.977,3.535,0s0.977,2.559,0,3.535c-0.121,0.121-0.251,0.227-0.389,0.317l0.036,0.036    l16.585-16.585l-3.536-3.536L12.73,48.713z"/><path d="M12.376,49.066l0.036,0.036c0.091-0.137,0.197-0.268,0.318-0.389L12.376,49.066z"/><rect x="31.558" y="21.677" transform="matrix(0.7071 -0.7071 0.7071 0.7071 -5.1455 35.9322)" width="18.486" height="5"/><path d="M52.64,15.874l5.115-5.115c-2.063-0.406-4.185-0.648-6.348-0.723l-2.303,2.302L52.64,15.874z"/><rect x="29.997" y="29.981" transform="matrix(-0.7071 -0.7071 0.7071 -0.7071 32.5093 78.4277)" width="5" height="5"/><rect x="46.605" y="13.373" transform="matrix(0.7071 0.7072 -0.7072 0.7071 25.6099 -30.0747)" width="5" height="5"/><path d="M12.73,52.248c0.855,0.855,2.176,0.961,3.146,0.317l-3.464-3.463C11.769,50.073,11.875,51.393,12.73,52.248z"/><path d="M16.265,48.713c-0.977-0.977-2.559-0.977-3.535,0c-0.121,0.121-0.227,0.252-0.318,0.389l3.464,3.463    c0.137-0.091,0.268-0.196,0.389-0.317C17.242,51.271,17.242,49.689,16.265,48.713z"/></g></g></svg>